<svg viewBox="0 0 512 512" xmlns="http://www.w3.org/2000/svg"><g id="Flat"><path d="m474.989 146.948a44.265 44.265 0 0 0 -13.309-9.164c-9.174-4.086-14.9-13.614-13.429-23.548a44.347 44.347 0 0 0 -12.525-37.961 44.347 44.347 0 0 0 -37.961-12.525c-9.934 1.474-19.462-4.255-23.548-13.429a44.265 44.265 0 0 0 -9.164-13.309 44.419 44.419 0 0 0 -62.82 0l-94.233 94.23 172.758 172.758 94.231-94.232a44.419 44.419 0 0 0 0-62.82z" fill="#809e39"/><path d="m381.333 138.667a8 8 0 0 1 -5.656-13.657l34.666-34.667a8 8 0 0 1 11.314 11.314l-34.667 34.666a7.975 7.975 0 0 1 -5.657 2.344z" fill="#85a33e"/><path d="m336 107.667a8 8 0 0 1 -8-8v-51.667a8 8 0 0 1 16 0v51.667a8 8 0 0 1 -8 8z" fill="#85a33e"/><path d="m464 184h-46.333a8 8 0 1 1 0-16h46.333a8 8 0 0 1 0 16z" fill="#85a33e"/><path d="m470.86 272.57a215.477 215.477 0 0 1 -8.87 61.37v.01a213.592 213.592 0 0 1 -11.42 30.01v.01a215.154 215.154 0 0 1 -195.14 124.03q-9.24 0-18.29-.77c-110.43-9.28-197.14-101.84-197.14-214.66 0-113.04 87.05-205.74 197.79-214.71q8.715-.72 17.64-.72a214.717 214.717 0 0 1 150.68 61.46q5.73 5.61 11.01 11.61a215.758 215.758 0 0 1 29.81 43.58c2.6 5.04 5.02 10.19 7.22 15.45a213.382 213.382 0 0 1 14.5 52.37q1.5 10.365 1.98 21.03.225 4.935.23 9.93z" fill="#8bab43"/><path d="m397.587 341.608 73.043-78.968q-.48-10.65-1.98-21.03a8.015 8.015 0 0 0 -1.44 1.24l-27.25 28.95 2.34-24.03a8 8 0 0 0 -15.93-1.54l-4.39 45.15-22.642 24.665a600.08 600.08 0 0 0 -.49-70.954l55.3-55.851c-2.2-5.26-4.62-10.41-7.22-15.45l-49.945 50.44a428.449 428.449 0 0 0 -11.44-62.463l31.577-31.557q-5.28-6-11.01-11.61l-25.666 25.652a312.4 312.4 0 0 0 -28.444-64.252s5.457 22.048 10.114 57.833l-143.143-57.261a8 8 0 0 0 -5.942 14.856l60.434 24.172-24.894 4.526a8 8 0 1 0 2.862 15.742l49.982-9.087s60.836 24.119 61.825 24.119a7.874 7.874 0 0 0 .9-.067 773.949 773.949 0 0 1 4.456 78.65l-133.84-49a8 8 0 1 0 -5.5 15.024l61.8 22.626-33.233 4.949a8 8 0 0 0 1.169 15.918 8.145 8.145 0 0 0 1.189-.088l62.284-9.277s45.137 16.353 46.023 16.365a662.726 662.726 0 0 1 -5.2 72.666l-37.786-14.752-24.27-51.333a8 8 0 0 0 -14.464 6.838l17.03 36.022-68.889-26.893a8 8 0 1 0 -5.818 14.9l130.18 50.82a8 8 0 0 0 1.728.454 533.78 533.78 0 0 1 -14.697 66.578l-11.9-4.926-15.9-42.827a8 8 0 0 0 -15 5.57l10.735 28.9-95.174-39.411a8 8 0 1 0 -6.122 14.782l64.7 26.791-23.729 6.426a8 8 0 1 0 4.182 15.444l43.748-11.849 39.09 16.187c.209.087.42.158.631.226a433.978 433.978 0 0 1 -23.751 58.217 214.262 214.262 0 0 0 63.39-31.34c2.2-9.989 4.369-20.7 6.417-32l62.953-51.52v-.01a213.592 213.592 0 0 0 11.42-30.01l-70.385 57.6c2.411-15.867 4.481-32.61 5.982-49.942z" fill="#94b54a"/><path d="m215.25 378.333c-.017 26.375 24.75 32.787 24.75 65.867 0 22.76-9.25 28.83-16.62 41.43-71.713 0-198.81-72.63-198.81-213.06 0-104.9 69.89-168.39 120-193.18q6.405-3.18 13.06-5.93c24.37-8.03 10.94-49.46 10.94-49.46 40 0 63.14 16.57 51.18 54.98-1.87 6.01-4.594 12.52-4.61 21.95-.015 8.945 1.36 15.695 4.12 20.9 8.071 15.221 20.212 22.3 20.74 47.76.333 16.077-8.36 28.51-8.52 28.75-7.19 10.88-16.34 19.08-16.34 39.9a50.1 50.1 0 0 0 4.2 21.08c1.554 3.5 3.779 6.449 8.48 13.59 5.749 8.733 12.18 17.04 12.18 33.97 0 26.9-15.25 32.73-21.85 50.48l-.01.01c-1.223 3.297-2.88 5.583-2.89 20.963z" fill="#9bbc50"/><g fill="#a4c45a"><path d="m239.33 178.72a45.757 45.757 0 0 1 -1.18 5.5 47.517 47.517 0 0 1 -6.19 13.38c-13.4 4.2-29.89 9.83-39.01 13.26-32.82 12.34-86.617 41.473-120.23 72l46.17 5.19a8 8 0 0 1 -.88 15.95c-.3 0-60.24-6.71-60.24-6.71a361.3 361.3 0 0 0 -25.89 30.51 204 204 0 0 1 -4.43-20.33c13.08-15.86 37.01-41.183 65.55-61.8.19-.14 20.51-56.477 20.51-56.477a8 8 0 1 1 14.98 5.62l-13.91 37.02a417.417 417.417 0 0 1 92.42-42.843c6.55-2.13 22.92-7.48 32.33-10.27z"/><path d="m181.3 174.26a7.982 7.982 0 0 1 -7.3 4.74 7.846 7.846 0 0 1 -3.26-.7l-44.4-19.83c-39.66 20.43-77.95 52.6-97.68 72.15a211.4 211.4 0 0 1 8.02-29.43c32.75-28.81 77.987-66.523 178.68-94.85a46.191 46.191 0 0 0 3.9 15.49c-26.72 7.35-53.28 18.1-74.08 27.53l32.08 14.34a7.98 7.98 0 0 1 4.04 10.56z"/><path d="m211.92 321.15a8.007 8.007 0 0 1 -7.91 6.85c-.38 0-53.14-7.64-53.14-7.64a406.394 406.394 0 0 0 -40.67 34.9l57.73 6.79a8 8 0 0 1 -.92 15.95c-.31 0-70.08-8.26-70.61-8.44-8.6 9.4-19.63 23.01-27.1 32.92q-5.16-6.615-9.81-13.64c26.25-34.48 71.17-81.78 141.64-119.59 3.29-1.77 11.71-6.43 18.21-9.93.16.35 8.33 13.38 8.48 13.59-7.23 3.84-45.87 25.78-58.1 34.02l35.43 5.15a8.015 8.015 0 0 1 6.77 9.07z"/><path d="m215.21 378.55c-4.55 3.2-9.48 6.72-11.7 8.21-29.19 19.58-56.45 42.52-78.23 66.18q-6.87-4.305-13.38-9.09c24.02-26.43 54.56-52 87.22-73.4 3.63-2.38 14.07-9.85 19.02-13.08-2.973 5.463-2.98 20.21-2.93 21.18z"/></g></g></svg>