<svg height="511pt" viewBox="0 0 511 511.99963" width="511pt" xmlns="http://www.w3.org/2000/svg"><path d="m508 68.101562-62.097656 62.09375c-3 3-6.601563 4.5-10.5 4.5-3.898438 0-7.800782-1.5-10.800782-4.5l-42.300781-42.300781c-6-6-6-15.601562 0-21.300781l62.097657-62.09375c5.703124-6 15.300781-6 21.300781 0l42.300781 42.300781c6 6 6 15.597657 0 21.300781zm0 0" fill="#a8d32a"/><path d="m508 68.101562-62.097656 62.09375c-3 3-6.601563 4.5-10.5 4.5-3.898438 0-7.800782-1.5-10.800782-4.5l-21-21 83.398438-83.394531 21 21c6 6 6 15.597657 0 21.300781zm0 0" fill="#93bf00"/><path d="m114.636719 506.816406c88.089843 17.601563 177.179687-10.382812 239.238281-72.421875 37.617188-37.621093 58.328125-87.628906 58.328125-140.816406 0-30.65625 8.335937-60.746094 24.113281-87.023437v-.015626c.726563-3.007812 49.835938-65.960937-7.296875-123.0625l-55.570312-4.429687-350.949219 350.949219 3.480469 56.519531c2.050781 2.050781 4.695312 3.507813 7.664062 4.101563-4.484375-.898438 71.976563 14.394531 80.992188 16.199218zm0 0" fill="#ff7816"/><path d="m386.585938 125.882812c-5.859376-5.84375-15.207032-4.761718-21.066407 1.128907l-292.644531 294.960937c-1.628906 8.128906 3.632812 16.023438 11.761719 17.652344l41.777343 8.363281c13.226563 2.652344 26.746094 3.984375 40.195313 3.984375 54.683594 0 106.128906-21.3125 144.84375-60 26.277344-26.292968 40.75-61.246094 40.75-98.394531 0-41.527344 11.28125-82.28125 32.640625-117.875l6.546875-10.914063c7.527344-12.539062 5.550781-28.550781-4.804687-38.90625zm0 0" fill="#ffd400"/><g fill="#99503d"><path d="m248.503906 386.996094c0 8.28125-6.714844 15-15 15s-15-6.71875-15-15c0-8.285156 6.714844-15 15-15s15 6.714844 15 15zm0 0"/><path d="m227.503906 350.996094c0 8.28125-6.714844 15-15 15s-15-6.71875-15-15c0-8.285156 6.714844-15 15-15s15 6.714844 15 15zm0 0"/><path d="m290.503906 356.996094c0 8.28125-6.714844 15-15 15s-15-6.71875-15-15c0-8.285156 6.714844-15 15-15s15 6.714844 15 15zm0 0"/><path d="m311.503906 314.996094c0 8.28125-6.714844 15-15 15s-15-6.71875-15-15c0-8.285156 6.714844-15 15-15s15 6.714844 15 15zm0 0"/><path d="m266.503906 320.996094c0 8.28125-6.714844 15-15 15s-15-6.71875-15-15c0-8.285156 6.714844-15 15-15s15 6.714844 15 15zm0 0"/><path d="m199.304688 395.996094c0 8.28125-6.71875 15-15 15-8.285157 0-15-6.71875-15-15 0-8.285156 6.714843-15 15-15 8.28125 0 15 6.714844 15 15zm0 0"/><path d="m317.503906 269.996094c0 8.28125-6.714844 15-15 15s-15-6.71875-15-15c0-8.285156 6.714844-15 15-15s15 6.714844 15 15zm0 0"/></g><path d="m305.945312 76.183594c-26.285156 15.777344-56.375 24.109375-87.027343 24.109375-53.199219 0-103.207031 20.71875-140.8125 58.328125-62.769531 62.773437-89.839844 152.214844-72.421875 239.238281-.898438-4.480469 14.394531 71.980469 16.199218 80.992187.59375 2.964844 2.050782 5.609376 4.101563 7.660157l403.035156-403.035157c-57.167969-57.199218-120.066406-8.023437-123.074219-7.292968zm0 0" fill="#ff9f00"/></svg>