<svg height="513pt" viewBox="0 0 513.6 513" width="513pt" xmlns="http://www.w3.org/2000/svg"><path d="m192 48.300781h96v32h-96zm0 0" fill="#d8b880"/><path d="m361.839844 128.300781c-83.359375 0-89.839844-48.992187-89.839844-64 0-15.007812 6.480469-64 89.839844-64 57.617187 0 124.816406 49.023438 127.648437 51.121094l17.488281 12.878906-17.472656 12.878907c-2.847656 2.097656-70.046875 51.121093-127.664062 51.121093zm0 0" fill="#9ccc65"/><path d="m485.070312 48.300781c-16.125 11.152344-73.246093 48-123.230468 48-62.878906 0-82-27.855469-87.617188-48-1.808594 6.558594-2.222656 12.304688-2.222656 16 0 15.007813 6.480469 64 89.839844 64 57.617187 0 124.816406-49.023437 127.648437-51.121093l17.488281-12.878907-17.472656-12.878906c-.382812-.273437-1.96875-1.410156-4.433594-3.121094zm0 0" fill="#7cb342"/><path d="m176 .300781h32v144h-32zm0 0" fill="#dbc9a5"/><path d="m192 512.300781c-103.40625 0-192-132.273437-192-240.542969 0-65.441406 33.3125-143.457031 192-143.457031s192 78.015625 192 143.457031c0 108.269532-88.59375 240.542969-192 240.542969zm0 0" fill="#ef4b03"/><path d="m329.550781 161.179688c-152.160156 8.960937-169.550781 107.710937-169.550781 151.410156 0 56.894531 23.871094 118.429687 62.238281 163.871094-9.886719 2.445312-19.980469 3.839843-30.238281 3.839843-98.367188 0-183.167969-119.664062-191.199219-224.542969-.480469 5.375-.800781 10.734376-.800781 16 0 108.269532 88.59375 240.542969 192 240.542969 19.039062 0 37.566406-4.480469 55.136719-12.464843.03125-.015626.304687-.207032.703125-.511719.257812-.113281.496094-.222657.753906-.335938 77.132812-36.0625 135.40625-139.441406 135.40625-227.230469 0-38.769531-11.953125-81.808593-54.449219-110.578124zm0 0" fill="#dd4503"/><path d="m352 512.300781c-88.640625 0-160-109.265625-160-199.710937 0-54.882813 27.761719-120.289063 160-120.289063s160 65.40625 160 120.289063c0 90.445312-71.359375 199.710937-160 199.710937zm0 0" fill="#ef4b03"/><path d="m513.601562 320.300781h-323.203124l1.042968-17.074219c3.101563-50.972656 33.46875-111.742187 160.558594-111.742187s157.457031 60.75 160.558594 111.742187zm0 0" fill="#f7eab7"/><g fill="#dd4503"><path d="m144 262.925781-43.3125-43.3125 22.625-22.625 20.6875 20.6875 20.6875-20.6875 22.625 22.625zm0 0"/><path d="m96 342.925781-43.3125-43.3125 22.625-22.625 20.6875 20.6875 20.6875-20.6875 22.625 22.625zm0 0"/><path d="m144 438.925781-43.3125-43.3125 22.625-22.625 20.6875 20.6875 20.6875-20.6875 22.625 22.625zm0 0"/><path d="m400 438.925781-43.3125-43.3125 22.625-22.625 20.6875 20.6875 20.6875-20.6875 22.625 22.625zm0 0"/><path d="m304 406.925781-43.3125-43.3125 22.625-22.625 20.6875 20.6875 20.6875-20.6875 22.625 22.625zm0 0"/></g></svg>