<svg id="Capa_1" enable-background="new 0 0 512 512" height="512" viewBox="0 0 512 512" width="512" xmlns="http://www.w3.org/2000/svg"><g><path d="m57.096 372.271c-76.128-76.128-76.128-199.555 0-275.683l39.492-39.492c76.128-76.128 199.555-76.128 275.683 0 76.128 76.128 76.128 199.555 0 275.683l-39.492 39.492c-76.128 76.127-199.555 76.127-275.683 0z" fill="#97de3d"/><g><path d="m373.469 58.257c-28.089-28.068-75.228-41.027-125.424-29.182-47.611 11.238-96.536 40.113-137.759 81.305-41.224 41.193-70.12 90.079-81.367 137.655-11.856 50.155 1.113 97.264 29.203 125.331 19.512 19.498 53.73 35.577 86.667 35.592l31.02-16.801 143.732-66.593c.988-.964 2.089-2.039 3.067-3.017 41.224-41.192 67.812-95.412 79.059-142.987 11.856-50.155-.109-93.234-28.198-121.303z" fill="#59c36a"/></g><ellipse cx="217.999" cy="218.001" fill="#97de3d" rx="222.85" ry="94.673" transform="matrix(.707 -.707 .707 .707 -90.3 218)"/><ellipse cx="217.999" cy="218.001" fill="#59c36a" rx="222.85" ry="35.788" transform="matrix(.707 -.707 .707 .707 -90.3 218)"/><g><path d="m375.545 60.455-315.09 315.09c76.357 72.833 197.305 71.744 272.324-3.275l39.492-39.492c75.018-75.018 76.108-195.966 3.274-272.323z" fill="#59c36a"/></g><g><path d="m60.422 375.577c19.824 18.487 52.685 33.366 84.366 33.38l31.02-16.801 143.732-66.593c.989-.964 2.09-2.039 3.067-3.017 41.224-41.192 67.812-95.412 79.059-142.987 11.555-48.882.476-91.036-26.097-119.13z" fill="#00a66c"/></g><g><path d="m375.578 60.422-315.158 315.158c36.972 36.972 137.495-3.606 224.523-90.635 87.028-87.028 127.607-187.551 90.635-224.523z" fill="#59c36a"/></g><g><path d="m375.578 60.422-315.158 315.158c13.976 13.976 95.856-45.245 182.885-132.273s146.249-168.909 132.273-182.885z" fill="#00a66c"/></g><g><path d="m121.442 316.19v.532c0 107.676 87.603 195.278 195.279 195.278 107.677 0 195.279-87.602 195.279-195.279v-.532h-42.224l-156.334 41.811-150-41.81z" fill="#97de3d"/><g><path d="m469.776 316.19-153.054 40.933v154.877c107.676 0 195.278-87.602 195.278-195.279v-.532h-42.224z" fill="#59c36a"/></g><path d="m163.661 316.19v.417c0 84.398 68.663 153.06 153.06 153.06s153.06-68.663 153.06-153.06v-.417z" fill="#fc445f"/><g><path d="m316.721 316.19v153.477c84.397 0 153.06-68.663 153.06-153.06v-.417z" fill="#e1105a"/></g><g><path d="m261.641 373.793c-5.878 5.878-15.407 5.878-21.285 0s-5.878-15.407 0-21.285 30.613-9.328 30.613-9.328-3.45 24.735-9.328 30.613z" fill="#e1105a"/></g><g><path d="m301.67 391.559c0 8.312 6.739 15.051 15.051 15.051v-43.294s-15.051 19.931-15.051 28.243z" fill="#e1105a"/><path d="m316.721 363.316v43.294c8.312 0 15.051-6.739 15.051-15.051s-15.051-28.243-15.051-28.243z" fill="#a1073d"/></g><path d="m371.802 373.793c5.878 5.878 15.407 5.878 21.285 0s5.878-15.407 0-21.285-30.613-9.328-30.613-9.328 3.45 24.735 9.328 30.613z" fill="#a1073d"/></g></g></svg>