<svg id="Capa_1" enable-background="new 0 0 512 512" height="512" viewBox="0 0 512 512" width="512" xmlns="http://www.w3.org/2000/svg"><g><g><g><g><path d="m348.447 210.744c-9.384-22.104-25.087-37.807-47.191-47.191-3.698-1.564-6.588-4.516-8.069-8.214s-1.44-7.841.124-11.518l54.297-126.43c2.476-5.707 8.204-9.322 14.418-9.074 6.246.3 11.622 4.33 13.61 10.254l15.299 45.896 98.716-62.712c11.808-7.085 27.677 8.784 20.592 20.592l-62.712 98.716 45.896 15.299c5.925 1.989 9.975 7.385 10.254 13.61.249 6.215-3.366 11.943-9.074 14.418l-126.43 54.297c-3.677 1.564-7.82 1.605-11.518.124-3.532-1.409-6.581-4.232-8.212-8.067z" fill="#b9dd39"/></g></g><path d="m348.447 210.744c1.631 3.835 4.679 6.658 8.214 8.069 3.698 1.481 7.841 1.44 11.518-.124l126.43-54.297c5.707-2.476 9.322-8.204 9.074-14.418-.28-6.225-4.33-11.622-10.254-13.61l-45.896-15.299 62.712-98.716c3.542-5.904 1.347-12.823-3.211-17.381l-177.412 177.41c7.862 7.862 14.133 17.314 18.825 28.366z" fill="#90cc1c"/><g><path d="m53.814 458.186c-75.241-75.241-71.47-161.875 10.607-243.952 76.214-76.214 178.458-108.397 248.603-78.275 29.23 12.367 50.63 33.726 63.039 63.08 30.1 70.082-2.082 172.326-78.296 248.54-82.078 82.077-168.713 85.848-243.953 10.607z" fill="#ffcd00"/></g><path d="m297.766 447.579c76.214-76.214 108.397-178.458 78.296-248.54-6.202-14.672-14.653-27.346-25.202-37.899l-297.046 297.046c75.24 75.241 161.875 71.47 243.952-10.607z" fill="#ffb100"/><g id="Pineapple_2_"><g><path d="m106.847 320.3c-2.714-2.714-4.392-6.463-4.392-10.607v-42.426c0-8.286 6.712-14.998 14.998-14.998s14.998 6.712 14.998 14.998v27.428h27.428c8.286 0 14.998 6.712 14.998 14.998s-6.712 14.998-14.998 14.998h-42.426c-4.143.001-7.892-1.677-10.606-4.391z" fill="#ffb100"/></g><g><path d="m159.88 267.267c-2.714-2.714-4.392-6.463-4.392-10.607v-42.426c0-8.286 6.712-14.998 14.998-14.998s14.998 6.712 14.998 14.998v27.428h27.428c8.286 0 14.998 6.712 14.998 14.998s-6.712 14.998-14.998 14.998h-42.426c-4.143.001-7.892-1.677-10.606-4.391z" fill="#ffb100"/></g><g><path d="m191.7 405.153c-2.714-2.714-4.392-6.463-4.392-10.607v-42.426c0-8.286 6.712-14.998 14.998-14.998s14.998 6.712 14.998 14.998v27.428h27.428c8.286 0 14.998 6.712 14.998 14.998s-6.712 14.998-14.998 14.998h-42.426c-4.143.001-7.892-1.677-10.606-4.391z" fill="#ff9100"/></g><g><path d="m244.733 352.12c-2.714-2.714-4.392-6.463-4.392-10.607v-42.426c0-8.286 6.712-14.998 14.998-14.998s14.998 6.712 14.998 14.998v27.428h27.428c8.286 0 14.998 6.712 14.998 14.998s-6.712 14.998-14.998 14.998h-42.426c-4.143.001-7.892-1.677-10.606-4.391z" fill="#ff9100"/></g></g></g><g><g><path d="m255.339 256.661c-2.714-2.714-4.392-6.463-4.392-10.607v-42.426c0-8.286 6.712-14.998 14.998-14.998s14.998 6.712 14.998 14.998v27.428h27.428c8.286 0 14.998 6.712 14.998 14.998s-6.712 14.998-14.998 14.998h-42.426c-4.142 0-7.892-1.678-10.606-4.391z" fill="#ffb100"/></g></g><g><path d="m96.24 415.76c-2.714-2.714-4.392-6.463-4.392-10.607v-42.426c0-8.286 6.712-14.998 14.998-14.998s14.998 6.712 14.998 14.998v27.428h27.428c8.286 0 14.998 6.712 14.998 14.998s-6.712 14.998-14.998 14.998h-42.426c-4.142 0-7.892-1.678-10.606-4.391z" fill="#ffb100"/></g><g fill="#ff9100"><path d="m106.847 420.151h42.426c8.286 0 14.998-6.712 14.998-14.998s-6.712-14.998-14.998-14.998h-27.428l-25.605 25.605c2.714 2.713 6.464 4.391 10.607 4.391z"/><path d="m265.946 261.052h42.426c8.286 0 14.998-6.712 14.998-14.998s-6.712-14.998-14.998-14.998h-27.428l-25.605 25.605c2.714 2.713 6.464 4.391 10.607 4.391z"/></g></g></svg>