<?xml version="1.0" encoding="iso-8859-1"?>
<!-- Generator: Adobe Illustrator 19.0.0, SVG Export Plug-In . SVG Version: 6.00 Build 0)  -->
<svg version="1.1" id="Capa_1" xmlns="http://www.w3.org/2000/svg" xmlns:xlink="http://www.w3.org/1999/xlink" x="0px" y="0px"
	 viewBox="0 0 498.404 498.404" style="enable-background:new 0 0 498.404 498.404;" xml:space="preserve">
<g transform="translate(0 -1)">
	<g>
		<path style="fill:#639085;" d="M372.968,159.783l87.185-87.345c3.664-3.674,3.664-9.621,0-13.295l-13.27-13.295
			c-1.758-1.763-4.145-2.753-6.635-2.753c-2.49,0-4.877,0.991-6.635,2.753l-87.185,87.345"/>
		<path style="fill:#639085;" d="M404.144,215.744l88.585-30.648c4.763-2.06,6.958-7.587,4.907-12.353l-7.438-17.298
			c-0.981-2.288-2.833-4.092-5.146-5.014c-2.313-0.922-4.898-0.886-7.184,0.1l-91.174,31.777"/>
		<path style="fill:#639085;" d="M323.196,116.585l30.723-89.015c2.051-4.766-0.143-10.293-4.905-12.353l-17.266-7.451
			c-2.287-0.986-4.872-1.022-7.185-0.1c-2.313,0.922-4.164,2.727-5.146,5.015l-30.79,89.213"/>
	</g>
	<path style="fill:#A773B4;" d="M139.439,148.348c3.636-4.571,7.54-8.923,11.691-13.032c37.882-38.781,92.705-55.951,145.941-45.708
		c12.03,2.391,23.692,6.354,34.689,11.787c8.554,4.118,16.648,9.129,24.148,14.949c10.02,7.592,18.951,16.524,26.544,26.544
		c5.41,6.982,10.098,14.495,13.991,22.423c5.584,10.945,9.708,22.575,12.266,34.593c11.058,53.858-5.975,109.648-45.23,148.145
		c-2.108,2.108-4.312,4.12-6.516,6.037L139.439,148.348z"/>
	<path style="fill:#FAEDBD;" d="M366.735,285.665l-9.773,68.419c-0.229,1.605-5.9,5.111-7.213,6.172
		c-2.533,2.048-5.124,4.021-7.773,5.92c-5.212,3.737-10.636,7.169-16.244,10.28c-10.941,6.072-22.542,10.868-34.577,14.294
		c-23.382,6.702-48.006,7.855-71.912,3.367c-9.302-1.78-18.409-4.459-27.193-8c-4.354-1.758-8.614-3.728-12.78-5.908
		c-3.931-2.059-8.419-6.438-13.244-5.501c-1.878,0.525-3.583,1.539-4.941,2.939c-13.24,11.199-22.402,26.465-26.055,43.418
		l-0.096,0.959c-4.648,26.273-24.451,47.28-50.404,53.47l-72.658,17.638c-4.602,1.117-9.331-1.286-11.142-5.662
		c-1.811-4.375-0.163-9.418,3.882-11.88l53.854-32.772c8.982-5.423,16.539-12.914,22.04-21.848
		c5.334-8.603,8.662-18.298,9.738-28.363c0.832-10.431,4.088-20.523,9.51-29.472c1.432-2.224,3.001-4.545,4.692-6.89
		c11.054-15.424,13.718-35.333,7.109-53.12c-18.57-52.906-7.983-111.677,27.882-154.776l71.294-12.937
		c14.583-2.63,29.437,2.918,38.725,14.463c9.288,11.545,11.526,27.243,5.834,40.924c-2.115,5.005-3.222,10.378-3.259,15.811
		c0.092,13.492,6.889,26.054,18.133,33.512c11.244,7.457,25.461,8.833,37.926,3.669l3.066-1.246
		c13.436-5.591,28.839-3.533,40.337,5.388C362.992,256.852,368.812,271.261,366.735,285.665z"/>
</g>
<g>
</g>
<g>
</g>
<g>
</g>
<g>
</g>
<g>
</g>
<g>
</g>
<g>
</g>
<g>
</g>
<g>
</g>
<g>
</g>
<g>
</g>
<g>
</g>
<g>
</g>
<g>
</g>
<g>
</g>
</svg>
