<svg id="Capa_1" enable-background="new 0 0 511.245 511.245" height="512" viewBox="0 0 511.245 511.245" width="512" xmlns="http://www.w3.org/2000/svg"><g><path d="m128.143 119.574c-5.692 0-11.134-3.257-13.653-8.772-1.117-2.446-26.891-60.42 13.805-105.815 5.531-6.169 15.014-6.684 21.182-1.156 6.168 5.529 6.686 15.013 1.156 21.182-27.732 30.936-9.047 72.905-8.855 73.325 3.442 7.536.124 16.435-7.412 19.877-2.02.921-4.138 1.359-6.223 1.359z" fill="#00b44b"/><g><g><path d="m351.956 511.245c-45.56 0-90.104-10.904-132.396-32.408-69.327-35.251-123.191-95.139-151.67-168.632-12.526-32.325-20.746-99.522-20.746-99.522l85.144-8.071 85.332 8.761s7.297 28.823 12.768 42.941c34.249 88.385 111.861 154.13 202.549 171.582 17.405 3.349 29.968 17.628 31.259 35.531 1.17 16.222-7.343 29.508-22.218 34.671-1.605.557-3.214 1.099-4.833 1.627-27.496 8.969-56.154 13.518-85.178 13.521h-.011z" fill="#ff405c"/><path d="m432.938 425.895c-90.688-17.452-168.3-83.197-202.549-171.582-5.471-14.118-12.768-42.941-12.768-42.941l-74.779-7.678c1.885 6.577 3.873 12.693 5.953 18.061 36.786 94.932 106.364 172.29 195.915 217.825 37.835 19.238 77.065 31.903 117.16 37.875 1.906-4.813 2.746-10.227 2.328-16.028-1.293-17.904-13.855-32.183-31.26-35.532z" fill="#ff1f3d"/></g><g><path d="m212.03 160.041c-.144-15.233-6.022-29.727-16.55-40.811-10.496-11.052-24.66-17.718-39.883-18.772-8.526-.591-17.291-.89-26.052-.89-7.259 0-14.639.206-21.938.612h-.002c-.099.006-.198.011-.297.017-28.189 1.59-51.258 22.094-56.101 49.86-3.48 19.952-4.819 40.268-4.058 60.625 6.875.842 10.714 4.31 15.399 8.563 6.051 5.494 12.91 11.721 26.39 11.721s20.339-6.227 26.391-11.722c5.394-4.897 9.655-8.765 18.74-8.765 9.082 0 13.342 3.868 18.737 8.766 6.049 5.494 12.906 11.721 26.387 11.721 13.478 0 20.34-6.222 26.394-11.712 3.787-3.434 7.134-6.462 12.05-7.886-3.557-16.965-5.445-34.119-5.607-51.327z" fill="#80d398"/><path d="m122.833 99.633c2.594 19.319 11.069 77.794 23.073 114.032 2.413 1.508 4.548 3.446 6.899 5.581 6.049 5.494 12.906 11.721 26.387 11.721 13.478 0 20.34-6.222 26.394-11.712 3.787-3.434 7.134-6.462 12.05-7.885-3.556-16.966-5.444-34.12-5.607-51.328-.144-15.233-6.022-29.727-16.55-40.811-10.496-11.052-24.66-17.718-39.883-18.772-8.526-.591-17.291-.89-26.052-.89-2.227-.001-4.467.025-6.711.064z" fill="#1fbf66"/></g></g></g></svg>